<svg xmlns="http://www.w3.org/2000/svg" width="144" height="44" viewBox="0 0 144 44">
    <g fill="none" fill-rule="evenodd">
        <g>
            <g>
                <g>
                    <g>
                        <g>
                            <path fill="#F2F3FF" d="M126.637 11.049l.161.074 16.12 8.318c.617.319 1.021.933 1.076 1.618l.006.16V33.83c0 .74-.408 1.415-1.052 1.762l-.142.069-32.172 14.176c-.497.219-1.058.225-1.557.024l-.163-.075-13.384-6.87c-.62-.318-1.025-.933-1.08-1.62l-.006-.16V25.336c0-.75.419-1.433 1.077-1.775l.144-.068 14.319-6.049-2.377 1.161 10.679 5.432.936 15.963 10.817-4.608V19.95l-11.196-6.249 6.26-2.643c.492-.208 1.044-.21 1.534-.009zm-75.081 4.507c2.209 0 4 1.79 4 4V46c0 2.21-1.791 4-4 4H8.444c-2.209 0-4-1.79-4-4V19.556c0-2.21 1.791-4 4-4h43.112zM41.11 31.11c-1.84 0-3.333 1.492-3.333 3.333 0 1.841 1.492 3.334 3.333 3.334 1.841 0 3.333-1.493 3.333-3.334 0-1.84-1.492-3.333-3.333-3.333z" transform="translate(-478 -507) translate(405 247) translate(0 91) translate(22 121) translate(51 42)"/>
                            <path fill="#4750FF" fill-rule="nonzero" d="M124.538 6.196l.13.053 16.099 8.101.07.062.151.112.025.025c.02.021.036.043.058.078l.073.118.055.073.028.118.04.243.004.053-.007.042-.014.058-.03.144-.022.084-.026.069-.049.06-.102.145-.024.03-.055.05-.131.085-.096.072-9.857 4.206-.091.138v2.982l9.21-3.873.113-.038c.453-.125.932.103 1.115.552.183.449.004.957-.401 1.19l-.106.053-9.837 4.136-.092.139v3.2l9.209-3.9.103-.036c.453-.132.939.097 1.125.546.184.45.007.96-.398 1.193l-.106.053-9.844 4.171-.091.138v2.93l9.208-3.865.112-.037c.454-.12.933.107 1.116.551.183.45.004.96-.401 1.193l-.106.053-33.381 14.032-.118.04c-.08.021-.161.032-.242.032-.11 0-.218-.02-.32-.057l-.1-.044-15.865-8.051-.102-.06c-.39-.264-.533-.786-.318-1.22.215-.433.713-.628 1.152-.471l.109.046 15.42 7.827.125.005 10.787-4.535.092-.139v-2.953l-10.62 4.455-.117.04c-.079.02-.16.032-.241.032-.109 0-.218-.02-.32-.057l-.1-.044-15.865-8.052-.102-.06c-.39-.263-.533-.786-.317-1.22.216-.433.714-.63 1.151-.472l.108.047 15.42 7.828.126.004 10.787-4.524.092-.138v-3.216l-10.618 4.495-.118.04c-.08.023-.162.034-.244.034-.109 0-.218-.02-.32-.057l-.1-.044-15.865-8.054-.102-.06c-.39-.263-.533-.783-.317-1.218.215-.434.714-.63 1.151-.471l.108.047 15.418 7.825.127.004 10.789-4.568.091-.138V25.65l-10.62 4.464-.118.04-.12.024-.122.008-.109-.006-.107-.02-.104-.03-.1-.044-15.86-8.052-.02-.019-.055-.04-.15-.129c-.053-.05-.098-.104-.135-.161l-.05-.09-.027-.04-.016-.017-.024-.086-.042-.276-.001-.028.003-.028.059-.267.037-.111.052-.058.12-.165.03-.031.026-.022.078-.052.052-.032.103-.076 33.17-14.082.109-.038c.177-.05.366-.046.542.01zM47.778 10c2.454 0 4.444 1.99 4.444 4.444v26.667c0 2.455-1.99 4.445-4.444 4.445H4.444C1.99 45.556 0 43.566 0 41.11V14.444C0 11.99 1.99 10 4.444 10h43.334zm0 2.222H4.444c-1.171 0-2.13.907-2.216 2.057l-.006.165v26.667c0 1.172.907 2.131 2.057 2.216l.165.006h43.334c1.171 0 2.131-.906 2.216-2.056l.006-.166V14.444c0-1.171-.907-2.13-2.056-2.216l-.166-.006zM41.11 28.89c3.068 0 5.556 2.487 5.556 5.555 0 3.069-2.488 5.556-5.556 5.556-1.25 0-2.404-.413-3.333-1.11-.928.697-2.083 1.11-3.334 1.11-3.068 0-5.555-2.487-5.555-5.556 0-3.068 2.487-5.555 5.555-5.555 1.251 0 2.406.413 3.334 1.111.929-.698 2.083-1.111 3.333-1.111zm-25.555 7.778c.613 0 1.11.497 1.11 1.11 0 .614-.497 1.112-1.11 1.112H7.778c-.614 0-1.111-.498-1.111-1.111 0-.614.497-1.111 1.11-1.111h7.779zm98.464-24.19l-8.896 3.775 14.153 7.105.022.023.143.102c.044.034.084.073.122.117l.054.07.096.145.029.038.038.115.024.12.009.143v14.224l8.98-3.776.091-.139V20.351l-.08-.133-14.657-7.736-.128-.006zM34.444 31.11c-1.84 0-3.333 1.492-3.333 3.333 0 1.841 1.492 3.334 3.333 3.334.686 0 1.323-.207 1.853-.562-.472-.815-.741-1.762-.741-2.772 0-1.01.269-1.956.74-2.772-.529-.354-1.166-.56-1.852-.56zm6.667 0c-.094 0-.188.004-.28.012l-.191.021-.077.012-.214.043-.118.03-.095.027-.166.056-.174.069-.126.057-.071.035-.164.09-.176.11c-.893.598-1.481 1.616-1.481 2.771 0 1.307.752 2.438 1.846 2.985l.222.1.163.062.127.042.126.036.083.02.21.043.2.027.16.013c.064.004.13.006.196.006 1.841 0 3.333-1.493 3.333-3.334 0-1.84-1.492-3.333-3.333-3.333zM20 32.222c.614 0 1.111.498 1.111 1.111 0 .614-.497 1.111-1.111 1.111H7.778c-.614 0-1.111-.497-1.111-1.11 0-.614.497-1.112 1.11-1.112H20zM72.5 19.95c.458 0 .845.317.947.764l.02.114.004.093-.05 4.607h4.658c.456 0 .844.317.945.75l.02.112.006.11c0 .458-.317.845-.764.947l-.114.02-.093.004-4.608-.05v4.658c0 .456-.316.844-.75.945l-.11.02-.111.006c-.458 0-.845-.317-.947-.764l-.02-.114-.004-.093.048-4.608h-4.656c-.456 0-.844-.316-.945-.75l-.02-.11-.006-.111c0-.458.317-.845.764-.947l.114-.02.093-.004 4.606.05.002-4.658c0-.456.316-.844.748-.945l.11-.02.113-.006zm30.269-2.696l-9.43 4.002 13.591 6.897.126.005 9.549-4.014-13.71-6.886-.126-.004zm-66.102 1.635c.613 0 1.11.497 1.11 1.111s-.497 1.111-1.11 1.111H7.777c-.613 0-1.11-.497-1.11-1.111s.497-1.111 1.11-1.111h28.89zm76.842-3.656l.428.178.106.003c.361-.121.713-.187 1.077-.19.515.013.915.363.902.77-.013.442-.385.756-.954.732-.307.032-.427.062-.502.183-.175.289-.101.473.259.622.48.2 1.033.095 1.458-.196.965-.704 2.401-.861 3.55-.384.965.403 1.435 1.147 1.329 2.04l.092.157.089.036c.454.187.63.628.416.996-.156.26-.482.423-.838.423-.148 0-.293-.028-.427-.084l-.21-.087-.13.008-.04.023-.093.064c-.07.05-.1.069-.14.086-.38.156-.802.237-1.222.237-.312 0-.61-.044-.877-.131-.478-.153-.708-.583-.532-.958.182-.395.73-.599 1.215-.438.15.047.387.029.576-.052.123-.049.22-.124.249-.197.162-.452.044-.643-.307-.787-.427-.177-.961-.122-1.341.094l-.121.078c-1.05.73-2.401.884-3.546.408-.701-.293-1.096-.708-1.268-1.176-.1-.275-.091-.587.015-.958l-.084-.178c-.44-.195-.609-.626-.395-.98.228-.378.797-.535 1.266-.342zm10.644-7.056l-7.811 3.314 13.465 7.109.13.005 8.148-3.476-13.806-6.948-.126-.004z" transform="translate(-478 -507) translate(405 247) translate(0 91) translate(22 121) translate(51 42)"/>
                        </g>
                    </g>
                </g>
            </g>
        </g>
    </g>
</svg>
