<svg xmlns="http://www.w3.org/2000/svg" width="18" height="13" viewBox="0 0 18 13">
    <g fill="none" fill-rule="evenodd">
        <g fill="#2CAC00" fill-rule="nonzero">
            <g>
                <g>
                    <g>
                        <g>
                            <path d="M17.65.342c.459.464.468 1.225.02 1.7L9.1 12.25c-.88.936-2.297 1.001-3.26.172l-.18-.172L.33 6.683c-.447-.475-.439-1.236.02-1.7.458-.464 1.192-.455 1.64.02l5.331 5.568c.023.023.053.03.081.022l.038-.024L16.01.362c.448-.475 1.182-.484 1.64-.02z" transform="translate(-448 -619) translate(405 247) translate(0 91) translate(43 275) translate(0 6)"/>
                        </g>
                    </g>
                </g>
            </g>
        </g>
    </g>
</svg>
