<svg xmlns="http://www.w3.org/2000/svg" width="56" height="40" viewBox="0 0 56 40">
    <g fill="none" fill-rule="evenodd">
        <g>
            <g>
                <g>
                    <g>
                        <g>
                            <path fill="#F2F3FF" d="M51.556 15.556c2.209 0 4 1.79 4 4V46c0 2.21-1.791 4-4 4H8.444c-2.209 0-4-1.79-4-4V19.556c0-2.21 1.791-4 4-4h43.112zM41.11 31.11c-1.84 0-3.333 1.492-3.333 3.333 0 1.841 1.492 3.334 3.333 3.334 1.841 0 3.333-1.493 3.333-3.334 0-1.84-1.492-3.333-3.333-3.333z" transform="translate(-806 -511) translate(0 247) translate(733 91) translate(22 121) translate(51 42)"/>
                            <path fill="#4750FF" fill-rule="nonzero" d="M47.778 10c2.454 0 4.444 1.99 4.444 4.444v26.667c0 2.455-1.99 4.445-4.444 4.445H4.444C1.99 45.556 0 43.566 0 41.11V14.444C0 11.99 1.99 10 4.444 10h43.334zm0 2.222H4.444c-1.171 0-2.13.907-2.216 2.057l-.006.165v26.667c0 1.172.907 2.131 2.057 2.216l.165.006h43.334c1.171 0 2.131-.906 2.216-2.056l.006-.166V14.444c0-1.171-.907-2.13-2.056-2.216l-.166-.006zM41.11 28.89c3.068 0 5.556 2.487 5.556 5.555 0 3.069-2.488 5.556-5.556 5.556-1.25 0-2.404-.413-3.333-1.11-.928.697-2.083 1.11-3.334 1.11-3.068 0-5.555-2.487-5.555-5.556 0-3.068 2.487-5.555 5.555-5.555 1.251 0 2.406.413 3.334 1.111.929-.698 2.083-1.111 3.333-1.111zm-25.555 7.778c.613 0 1.11.497 1.11 1.11 0 .614-.497 1.112-1.11 1.112H7.778c-.614 0-1.111-.498-1.111-1.111 0-.614.497-1.111 1.11-1.111h7.779zm18.888-5.556c-1.84 0-3.333 1.492-3.333 3.333 0 1.841 1.492 3.334 3.333 3.334.686 0 1.323-.207 1.853-.562-.472-.815-.741-1.762-.741-2.772 0-1.01.269-1.956.74-2.772-.529-.354-1.166-.56-1.852-.56zm6.667 0c-.094 0-.188.004-.28.012l-.191.021-.077.012-.214.043-.118.03-.095.027-.166.056-.174.069-.126.057-.071.035-.164.09-.176.11c-.893.598-1.481 1.616-1.481 2.771 0 1.307.752 2.438 1.846 2.985l.222.1.163.062.127.042.126.036.083.02.21.043.2.027.16.013c.064.004.13.006.196.006 1.841 0 3.333-1.493 3.333-3.334 0-1.84-1.492-3.333-3.333-3.333zM20 32.222c.614 0 1.111.498 1.111 1.111 0 .614-.497 1.111-1.111 1.111H7.778c-.614 0-1.111-.497-1.111-1.11 0-.614.497-1.112 1.11-1.112H20zM36.667 18.89c.613 0 1.11.497 1.11 1.111s-.497 1.111-1.11 1.111H7.777c-.613 0-1.11-.497-1.11-1.111s.497-1.111 1.11-1.111h28.89z" transform="translate(-806 -511) translate(0 247) translate(733 91) translate(22 121) translate(51 42)"/>
                        </g>
                    </g>
                </g>
            </g>
        </g>
    </g>
</svg>
